<?xml version="1.0" encoding="utf-8"?>
<!-- Generator: Adobe Illustrator 24.1.2, SVG Export Plug-In . SVG Version: 6.00 Build 0)  -->
<svg version="1.1" id="Capa_1" xmlns="http://www.w3.org/2000/svg" xmlns:xlink="http://www.w3.org/1999/xlink" x="0px" y="0px"
	 viewBox="0 0 90 70" style="enable-background:new 0 0 90 70;" xml:space="preserve">
<style type="text/css">
	.st0{fill:none;stroke:#464646;stroke-width:2;stroke-linecap:round;stroke-linejoin:round;stroke-miterlimit:10;}
	.st1{fill:none;stroke:#464646;stroke-width:2;stroke-linecap:square;stroke-linejoin:round;stroke-miterlimit:10;}
	.st2{fill:#464646;}
</style>
<g>
	<path class="st0" d="M78.74,67.32H11.26c-4.47,0-8.1-3.63-8.1-8.1l0,0H36.9l0,2.7h17.55l0-2.7h32.39l0,0
		C86.84,63.7,83.21,67.32,78.74,67.32z"/>
	<path class="st1" d="M8.56,53.83V7.94c0-2.98,2.42-5.4,5.4-5.4h62.08c2.98,0,5.4,2.42,5.4,5.4v45.89"/>
</g>
<g>
	<path class="st2" d="M17.95,25.22c2.73,0,4.26,1.38,4.26,3.64v3.09c0,2.24-1.53,3.62-4.26,3.62c-2.67,0-4.24-1.38-4.24-3.62v-3.09
		C13.71,26.6,15.28,25.22,17.95,25.22z M17.95,26.76c-1.59,0-2.56,0.78-2.56,2.08v3.11c0,1.31,0.97,2.08,2.56,2.08
		c1.61,0,2.58-0.78,2.58-2.08v-3.11C20.53,27.53,19.56,26.76,17.95,26.76z"/>
	<path class="st2" d="M29.04,25.22c0.34,0,0.45,0.11,0.45,0.45v0.64c0,0.34-0.11,0.45-0.45,0.45h-0.66c-0.93,0-1.63,0.15-2.18,0.32
		c-0.25,0.09-0.27,0.21-0.27,0.38v7.35c0,0.34-0.11,0.45-0.45,0.45h-0.8c-0.32,0-0.44-0.11-0.44-0.45v-7.96
		c0-0.59,0.13-0.81,0.72-1.06c0.7-0.27,1.8-0.55,3.47-0.59H29.04z"/>
	<path class="st2" d="M34.06,25.22c1.17,0,2.16,0.28,2.65,0.42v-3.92c0-0.34,0.11-0.45,0.45-0.45h0.8c0.32,0,0.44,0.11,0.44,0.45
		v12.22c0,0.63-0.13,0.8-0.74,1.04c-0.74,0.28-1.78,0.59-3.39,0.59c-2.79,0-4.05-1.38-4.05-3.81v-2.67
		C30.21,26.62,31.48,25.22,34.06,25.22z M34.38,26.77c-1.71,0-2.46,0.81-2.46,2.37v2.56c0,1.52,0.83,2.31,2.5,2.31
		c0.83,0,1.53-0.13,2.03-0.3c0.25-0.09,0.27-0.15,0.27-0.36v-6.16C36.27,27.06,35.44,26.77,34.38,26.77z"/>
	<path class="st2" d="M44.67,25.22c2.92,0,4.28,1.69,4.28,3.92v1.1c0,0.4-0.17,0.66-0.7,0.66h-6.18v0.91c0,1.44,0.87,2.27,2.54,2.27
		c1.35,0,2.16-0.51,2.63-1.31c0.23-0.32,0.4-0.36,0.74-0.17l0.51,0.27c0.34,0.17,0.38,0.42,0.17,0.74
		c-0.66,1.16-1.89,1.95-4.07,1.95c-2.96,0-4.21-1.63-4.21-3.94v-2.35C40.39,26.72,41.86,25.22,44.67,25.22z M44.67,26.66
		c-1.71,0-2.6,0.91-2.6,2.39v0.55h5.19v-0.55C47.26,27.57,46.39,26.66,44.67,26.66z"/>
	<path class="st2" d="M55.62,25.22c0.34,0,0.45,0.11,0.45,0.45v0.64c0,0.34-0.11,0.45-0.45,0.45h-0.66c-0.93,0-1.63,0.15-2.18,0.32
		c-0.25,0.09-0.27,0.21-0.27,0.38v7.35c0,0.34-0.11,0.45-0.45,0.45h-0.8c-0.32,0-0.44-0.11-0.44-0.45v-7.96
		c0-0.59,0.13-0.81,0.72-1.06c0.7-0.27,1.8-0.55,3.47-0.59H55.62z"/>
	<path class="st2" d="M62,21.83h0.83c0.38,0,0.51,0.13,0.51,0.49v12.47c0,0.36-0.13,0.49-0.51,0.49H62c-0.36,0-0.49-0.13-0.49-0.49
		V22.32C61.51,21.96,61.64,21.83,62,21.83z"/>
	<path class="st2" d="M76.27,26.83v3.45c0,3.09-1.97,5-5.49,5h-4.13c-0.36,0-0.49-0.13-0.49-0.49V22.32c0-0.36,0.13-0.49,0.49-0.49
		h4.13C74.3,21.83,76.27,23.74,76.27,26.83z M70.78,23.53h-2.79v10.04h2.79c2.35,0,3.66-1.19,3.66-3.28v-3.49
		C74.43,24.73,73.15,23.53,70.78,23.53z"/>
</g>
</svg>
