<?xml version="1.0" encoding="utf-8"?>
<!-- Generator: Adobe Illustrator 24.1.2, SVG Export Plug-In . SVG Version: 6.00 Build 0)  -->
<svg version="1.1" id="Capa_1" xmlns="http://www.w3.org/2000/svg" xmlns:xlink="http://www.w3.org/1999/xlink" x="0px" y="0px"
	 viewBox="0 0 86.81 78.89" style="enable-background:new 0 0 86.81 78.89;" xml:space="preserve">
<style type="text/css">
	.st0{fill:none;stroke:#464646;stroke-width:2;stroke-linecap:round;stroke-linejoin:round;stroke-miterlimit:10;}
	.st1{fill:none;stroke:#464646;stroke-width:2;stroke-linecap:square;stroke-linejoin:round;stroke-miterlimit:10;}
	.st2{fill:#464646;}
</style>
<g id="buy_1_">
	<g>
		<path class="st0" d="M47.38,71.34v-0.96l-3.75-4.51c-0.16-0.2-0.32-0.41-0.44-0.63c-1.23-2.22-1.81-4.85-1.81-7.36v-7.7
			c0-1.32,0.13-2.41,1.5-2.41l0,0c1.38,0,3.5,2.25,3.5,3.57v6V35.75c0-1.32,1.13-2.41,2.5-2.41l0,0c1.38,0,2.5,1.08,2.5,2.41v13.59
			v-2.05c0-1.32,1.13-2.41,2.5-2.41l0,0c1.38,0,2.5,1.08,2.5,2.41v3.05v-1.13c0-1.32,1.13-2.4,2.5-2.4l0,0c1.38,0,2.5,1.08,2.5,2.4
			v3.13v-1.2c0-1.32,1.13-2.41,2.5-2.41l0,0c1.38,0,2.5,1.08,2.5,2.41v6.73c0,3.44-0.78,6.67-2.1,9.85
			c-0.14,0.34-0.33,0.65-0.55,0.94l-1.35,1.72v0.96"/>
	</g>
	<g>
		<path class="st1" d="M39.98,41.34H13.5c-2.66,0-4.81-1.79-4.81-4v-24c0-2.21,2.16-4,4.81-4h57.78c2.66,0,4.81,1.79,4.81,4v24
			c0,2.21-2.16,4-4.81,4H60.44"/>
	</g>
</g>
<g>
	<path class="st2" d="M19.9,20.31c2.07,0,3.25,0.75,3.83,1.91c0.21,0.41,0.11,0.63-0.29,0.8l-0.8,0.32
		c-0.39,0.18-0.52,0.13-0.75-0.25c-0.3-0.54-0.79-0.93-1.93-0.93c-1.16,0-1.68,0.32-1.68,0.97c0,0.84,0.72,0.98,2.09,1.11
		c2.13,0.21,3.65,0.7,3.65,2.88c0,1.75-1.32,2.99-3.86,2.99c-2.11,0-3.45-0.77-3.99-2.16c-0.14-0.38-0.05-0.61,0.36-0.75l0.8-0.25
		c0.36-0.13,0.55-0.07,0.73,0.34c0.29,0.7,0.93,0.98,2.02,0.98c1.27,0,1.9-0.36,1.9-1.06c0-0.84-0.7-1-2.15-1.14
		c-1.75-0.18-3.61-0.55-3.61-2.88C16.21,21.49,17.43,20.31,19.9,20.31z"/>
	<path class="st2" d="M33.43,21.12v7.37c0,0.55-0.13,0.77-0.7,1c-0.72,0.29-1.81,0.63-3.5,0.63c-2.56,0-3.74-1.34-3.74-3.59v-5.4
		c0-0.41,0.14-0.54,0.55-0.54h0.98c0.41,0,0.54,0.13,0.54,0.54v5.33c0,1.2,0.64,1.77,1.95,1.77c0.7,0,1.16-0.07,1.65-0.21
		c0.16-0.05,0.2-0.16,0.2-0.3v-6.58c0-0.41,0.14-0.54,0.55-0.54h0.97C33.29,20.58,33.43,20.71,33.43,21.12z"/>
	<path class="st2" d="M37.51,17.16v3.45c0.54-0.13,1.27-0.3,2.15-0.3c2.56,0,3.72,1.32,3.72,3.59v2.41c0,2.45-1.31,3.79-4.04,3.79
		c-1.45,0-2.61-0.3-3.24-0.57c-0.57-0.27-0.66-0.41-0.66-0.98V17.16c0-0.41,0.14-0.55,0.55-0.55h0.98
		C37.38,16.61,37.51,16.75,37.51,17.16z M39.35,22.21c-0.75,0-1.41,0.18-1.84,0.32v5.28c0,0.09,0.02,0.14,0.14,0.2
		c0.41,0.14,0.95,0.21,1.54,0.21c1.43,0,2.11-0.63,2.11-1.95v-2.31C41.3,22.83,40.62,22.21,39.35,22.21z"/>
	<path class="st2" d="M54.44,20.31c2.43,0,3.5,1.31,3.5,3.56v5.42c0,0.41-0.13,0.55-0.54,0.55h-0.98c-0.41,0-0.55-0.14-0.55-0.55
		v-5.35c0-1.14-0.57-1.73-1.73-1.73c-0.72,0-1.32,0.18-1.73,0.32c0.14,0.38,0.2,0.84,0.2,1.34v5.42c0,0.41-0.14,0.55-0.55,0.55
		h-0.97c-0.41,0-0.55-0.14-0.55-0.55v-5.35c0-1.14-0.61-1.73-1.75-1.73c-0.55,0-0.98,0.07-1.43,0.21c-0.13,0.05-0.14,0.13-0.14,0.21
		v6.65c0,0.41-0.13,0.55-0.54,0.55h-0.98c-0.41,0-0.55-0.14-0.55-0.55v-7.35c0-0.57,0.14-0.79,0.7-1.02
		c0.7-0.29,1.68-0.61,3.25-0.61c0.95,0,1.68,0.2,2.22,0.59C51.92,20.65,52.91,20.31,54.44,20.31z"/>
	<path class="st2" d="M62.13,18.18v0.16c0,0.82-0.27,1.09-1.09,1.09h-0.13c-0.82,0-1.09-0.27-1.09-1.09v-0.16
		c0-0.82,0.27-1.07,1.09-1.07h0.13C61.87,17.11,62.13,17.36,62.13,18.18z M62.03,21.12v8.17c0,0.41-0.14,0.55-0.55,0.55h-0.98
		c-0.41,0-0.54-0.14-0.54-0.55v-8.17c0-0.41,0.13-0.54,0.54-0.54h0.98C61.88,20.58,62.03,20.71,62.03,21.12z"/>
	<path class="st2" d="M67.05,18.97v1.61h2.04c0.41,0,0.55,0.13,0.55,0.54v0.82c0,0.41-0.14,0.55-0.55,0.55h-2.04v3.59
		c0,1.75,0.52,2.06,2.02,2.06c0.43,0,0.57,0.13,0.57,0.55v0.82c0,0.43-0.14,0.55-0.57,0.57c-2.95,0.09-4.1-0.84-4.1-3.93v-3.67
		h-1.23c-0.41,0-0.54-0.14-0.54-0.55v-0.82c0-0.41,0.13-0.54,0.54-0.54h1.23v-1.61c0-0.41,0.14-0.54,0.55-0.54h0.97
		C66.91,18.43,67.05,18.56,67.05,18.97z"/>
</g>
</svg>
