<?xml version="1.0" encoding="utf-8"?>
<!-- Generator: Adobe Illustrator 24.1.2, SVG Export Plug-In . SVG Version: 6.00 Build 0)  -->
<svg version="1.1" id="Capa_1" xmlns="http://www.w3.org/2000/svg" xmlns:xlink="http://www.w3.org/1999/xlink" x="0px" y="0px"
	 viewBox="0 0 90 70" style="enable-background:new 0 0 90 70;" xml:space="preserve">
<style type="text/css">
	.st0{fill:#404040;}
</style>
<g id="bank_credit">
	<path class="st0" d="M75.69,39.69c-0.66-1.13-1.73-1.94-3-2.27c-1.27-0.33-2.59-0.15-3.68,0.5l-15.02,7.82
		c0.08-0.37,0.13-0.75,0.13-1.15c0-2.72-2.21-4.92-4.9-4.92c-16.28-0.26-16.88-0.02-17.11,0.07c-0.63,0.26-6.32,3.68-8.96,5.27
		c-0.38-0.55-0.93-0.93-1.58-1.06c-0.68-0.13-1.36,0-1.95,0.39l-5.58,3.87c-0.44,0.31-0.55,0.92-0.24,1.37
		c0.31,0.44,0.92,0.55,1.37,0.24l5.56-3.86c0.14-0.08,0.29-0.12,0.45-0.08c0.16,0.03,0.29,0.12,0.39,0.26l10.44,15.81
		c0.18,0.28,0.11,0.65-0.17,0.84c-0.45,0.29-0.58,0.9-0.28,1.35c0.18,0.29,0.5,0.44,0.82,0.44c0.19,0,0.37-0.05,0.54-0.17
		c1.14-0.75,1.46-2.26,0.78-3.43c0.35-0.27,0.78-0.59,0.93-0.64c0.34-0.07,2.82-0.31,5.2-0.55c8.65-0.85,12.65-1.3,13.45-1.74
		c1.15-0.62,19.87-11.18,20.69-11.64c1.13-0.66,1.94-1.73,2.26-3C76.55,42.14,76.36,40.81,75.69,39.69z M74.32,42.92
		c-0.2,0.77-0.69,1.4-1.35,1.8c-0.2,0.11-19.51,11-20.6,11.6c-0.92,0.36-8.62,1.11-12.75,1.53c-3.28,0.32-5.01,0.5-5.44,0.59
		c-0.46,0.1-0.91,0.4-1.45,0.81l-8.41-12.65c3.35-2.02,8.03-4.81,8.41-5c0.91-0.15,10.58-0.06,16.48,0.03
		c1.63,0,2.95,1.33,2.95,2.96c0,1.62-1.32,2.95-2.95,2.95h-9.84c-0.54,0-0.98,0.44-0.98,0.98c0,0.54,0.44,0.98,0.98,0.98h9.84
		c0.37,0,0.74-0.04,1.08-0.12c0.28,0.15,0.63,0.17,0.92,0.01l18.74-9.76c0.68-0.4,1.47-0.51,2.24-0.31c0.76,0.2,1.4,0.68,1.81,1.37
		C74.4,41.36,74.51,42.15,74.32,42.92z"/>
	<g>
		<path class="st0" d="M43.79,27.77c-0.14-0.07-0.26-0.15-0.38-0.21c-0.12-0.07-0.22-0.13-0.32-0.18c-0.1-0.05-0.19-0.07-0.29-0.07
			c-0.09,0-0.17,0.02-0.25,0.07c-0.08,0.04-0.15,0.1-0.2,0.17l-0.56,0.81c0.28,0.26,0.63,0.49,1.04,0.67
			c0.41,0.19,0.84,0.32,1.29,0.39L44,30.64h0.67c0.13,0,0.24-0.04,0.33-0.13c0.09-0.09,0.13-0.18,0.15-0.29l0.07-0.74
			c0.45-0.04,0.86-0.14,1.21-0.29c0.35-0.15,0.65-0.36,0.89-0.61c0.24-0.25,0.43-0.54,0.56-0.86c0.12-0.33,0.18-0.68,0.18-1.05
			c0-0.24-0.03-0.47-0.09-0.66c-0.06-0.2-0.15-0.37-0.26-0.51c-0.11-0.15-0.24-0.28-0.39-0.39c-0.15-0.11-0.31-0.21-0.48-0.29
			c-0.18-0.09-0.36-0.16-0.55-0.22c-0.19-0.07-0.38-0.13-0.57-0.18l0.21-2.09c0.12,0.04,0.23,0.07,0.34,0.12
			c0.11,0.04,0.21,0.09,0.31,0.13c0.09,0.04,0.18,0.08,0.26,0.1c0.08,0.03,0.15,0.04,0.21,0.04c0.09,0,0.17-0.02,0.24-0.07
			c0.07-0.04,0.14-0.12,0.2-0.21l0.45-0.66c-0.21-0.2-0.47-0.39-0.78-0.56c-0.3-0.18-0.67-0.31-1.09-0.38l0.12-1.16h-0.67
			c-0.14,0-0.25,0.04-0.34,0.13c-0.09,0.09-0.13,0.2-0.15,0.31l-0.07,0.66c-0.45,0-0.86,0.07-1.21,0.23
			c-0.36,0.15-0.66,0.34-0.9,0.58c-0.24,0.24-0.42,0.5-0.55,0.8c-0.13,0.29-0.19,0.6-0.19,0.91c0,0.42,0.07,0.77,0.21,1.05
			c0.14,0.28,0.32,0.51,0.55,0.69c0.22,0.18,0.47,0.32,0.75,0.43c0.28,0.1,0.56,0.2,0.84,0.28l-0.21,2.22
			C44.08,27.91,43.92,27.85,43.79,27.77z M45.55,26.05c0.24,0.09,0.43,0.2,0.57,0.34c0.15,0.13,0.21,0.31,0.21,0.53
			c0,0.6-0.32,0.96-0.97,1.07L45.55,26.05z M44.07,23.67c-0.15-0.14-0.22-0.33-0.22-0.56c0-0.1,0.02-0.2,0.06-0.29
			c0.04-0.09,0.09-0.18,0.17-0.25c0.08-0.07,0.18-0.14,0.3-0.19c0.12-0.06,0.28-0.1,0.45-0.12l-0.17,1.78
			C44.4,23.94,44.21,23.82,44.07,23.67z"/>
		<path class="st0" d="M45,35.16c5.41,0,9.8-4.4,9.8-9.8s-4.39-9.8-9.8-9.8c-5.4,0-9.8,4.4-9.8,9.8S39.59,35.16,45,35.16z M45,17.52
			c4.33,0,7.84,3.52,7.84,7.84S49.32,33.2,45,33.2s-7.84-3.52-7.84-7.84S40.67,17.52,45,17.52z"/>
	</g>
	<g>
		<path class="st0" d="M39.11,12.61c0.54,0,0.98-0.44,0.98-0.98V7.71c0-0.54-0.44-0.98-0.98-0.98c-0.54,0-0.98,0.44-0.98,0.98v3.92
			C38.13,12.17,38.58,12.61,39.11,12.61z"/>
		<path class="st0" d="M44.02,8.69c0.54,0,0.98-0.44,0.98-0.98v-4.9c0-0.54-0.44-0.98-0.98-0.98c-0.54,0-0.98,0.44-0.98,0.98v4.9
			C43.04,8.25,43.48,8.69,44.02,8.69z"/>
		<path class="st0" d="M48.92,11.63c0.55,0,0.98-0.44,0.98-0.98v-4.9c0-0.54-0.44-0.98-0.98-0.98c-0.54,0-0.98,0.44-0.98,0.98v4.9
			C47.94,11.19,48.38,11.63,48.92,11.63z"/>
	</g>
</g>
</svg>
