<?xml version="1.0" encoding="utf-8"?>
<!-- Generator: Adobe Illustrator 24.1.2, SVG Export Plug-In . SVG Version: 6.00 Build 0)  -->
<svg version="1.1" id="Capa_1" xmlns="http://www.w3.org/2000/svg" xmlns:xlink="http://www.w3.org/1999/xlink" x="0px" y="0px"
	 viewBox="0 0 204.4 61.6" style="enable-background:new 0 0 204.4 61.6;" xml:space="preserve">
<style type="text/css">
	
		.st0{clip-path:url(#SVGID_2_);fill:none;stroke:#464646;stroke-width:2;stroke-linecap:round;stroke-linejoin:round;stroke-miterlimit:10;}
	.st1{fill:none;stroke:#464646;stroke-width:2;stroke-linecap:round;stroke-linejoin:round;stroke-miterlimit:10;}
	.st2{fill:#464646;}
</style>
<g>
	<defs>
		<polygon id="SVGID_1_" points="-1,48.7 164.6,48.7 164.6,23.4 189.4,23.4 189.4,-1.1 -1,-1.1 		"/>
	</defs>
	<clipPath id="SVGID_2_">
		<use xlink:href="#SVGID_1_"  style="overflow:visible;"/>
	</clipPath>
	<path class="st0" d="M175.1,41.6H10.5c-3,0-5.4-2.4-5.4-5.4V11.5c0-3,2.4-5.4,5.4-5.4h164.6c3,0,5.4,2.4,5.4,5.4v24.7
		C180.5,39.1,178.1,41.6,175.1,41.6z"/>
</g>
<g>
	<path class="st1" d="M188.5,57.7l-0.6-0.9l-6.6-2c-0.3-0.1-0.6-0.2-0.9-0.3c-2.6-1.4-4.9-3.6-6.6-6.1l-5-7.6
		c-0.9-1.3-1.4-2.5-0.1-3.3l0,0c1.4-0.9,4.9-0.1,5.8,1.2l3.9,5.9l-14.1-21.2c-0.9-1.3-0.5-3.1,0.9-4l0,0c1.4-0.9,3.2-0.6,4,0.7
		l8.9,13.4l-1.3-2c-0.9-1.3-0.5-3.1,0.9-4l0,0c1.3-0.9,3.2-0.6,4,0.7l2,3l-0.7-1.1c-0.9-1.3-0.5-3.1,0.9-4l0,0
		c1.3-0.9,3.2-0.6,4,0.7l2,3.1l-0.8-1.2c-0.9-1.3-0.5-3.1,0.9-4l0,0c1.4-0.9,3.2-0.6,4,0.7l4.4,6.6c2.2,3.4,3.6,7.1,4.3,11
		c0.1,0.4,0.1,0.8,0.1,1.3l-0.2,2.6l0.6,1"/>
</g>
<polyline class="st1" points="138.4,22.7 146.9,31.1 158.7,14.2 "/>
<g>
	<path class="st2" d="M22.9,18.1c2.8,0,4.4,1.1,5.1,2.6c0.2,0.4,0.1,0.7-0.3,0.9l-0.8,0.3c-0.4,0.2-0.6,0.1-0.8-0.3
		c-0.5-1-1.3-1.6-3.1-1.6c-1.9,0-2.8,0.6-2.8,1.8c0,1.6,1.3,1.8,3.3,1.9c2.8,0.3,4.9,0.9,4.9,3.8c0,2.3-1.7,3.9-5.1,3.9
		c-2.8,0-4.6-1-5.4-3c-0.2-0.4-0.1-0.6,0.4-0.8l0.8-0.3c0.4-0.1,0.6-0.1,0.8,0.4c0.5,1.3,1.6,1.8,3.3,1.8c2.1,0,3.1-0.7,3.1-1.9
		c0-1.5-1.2-1.7-3.3-1.9c-2.5-0.2-5-0.7-5-3.8C18,19.6,19.6,18.1,22.9,18.1z"/>
	<path class="st2" d="M36.2,18.1c3.5,0,5.1,1.8,5.1,4.9v3.5c0,3.2-1.7,5-5.2,5c-1.4,0-2.6-0.4-3.2-0.7v5.1c0,0.4-0.1,0.6-0.6,0.6h-1
		c-0.4,0-0.6-0.1-0.6-0.6V20.2c0-0.8,0.2-1.1,1-1.4C32.6,18.4,34,18.1,36.2,18.1z M35.8,20.1c-1.1,0-1.9,0.2-2.6,0.4
		c-0.3,0.1-0.4,0.2-0.4,0.5v7.8c0.6,0.2,1.7,0.6,3,0.6c2.2,0,3.2-1,3.2-3.1v-3.3C39.1,21.1,38,20.1,35.8,20.1z"/>
	<path class="st2" d="M46.3,15v0.2c0,0.9-0.3,1.2-1.2,1.2H45c-0.9,0-1.2-0.3-1.2-1.2V15c0-0.9,0.3-1.2,1.2-1.2h0.1
		C46,13.8,46.3,14.1,46.3,15z M46.1,19v11.5c0,0.4-0.1,0.6-0.6,0.6h-1c-0.4,0-0.6-0.1-0.6-0.6V19c0-0.4,0.1-0.6,0.6-0.6h1
		C46,18.5,46.1,18.6,46.1,19z"/>
	<path class="st2" d="M54.8,18.1c3.4,0,5,1.8,5,4.9v7.6c0,0.4-0.1,0.6-0.6,0.6h-1c-0.4,0-0.6-0.1-0.6-0.6V23c0-1.9-1-2.9-3.1-2.9
		c-1.2,0-2.2,0.2-2.8,0.4c-0.2,0.1-0.3,0.2-0.3,0.4v9.5c0,0.4-0.1,0.6-0.6,0.6h-1c-0.4,0-0.6-0.1-0.6-0.6V20.3
		c0-0.8,0.2-1.1,0.9-1.4C51,18.5,52.5,18.1,54.8,18.1z"/>
	<path class="st2" d="M71.2,16.1v2.4h3.2c0.4,0,0.6,0.1,0.6,0.6v0.9c0,0.4-0.1,0.6-0.6,0.6h-3.2v5.7c0,2.7,0.8,3.2,3.2,3.2
		c0.5,0,0.6,0.1,0.6,0.6v0.9c0,0.4-0.1,0.6-0.6,0.6c-3.9,0.1-5.3-1.1-5.3-5.2v-5.8h-2c-0.4,0-0.6-0.1-0.6-0.6V19
		c0-0.4,0.1-0.6,0.6-0.6h2v-2.4c0-0.4,0.1-0.6,0.6-0.6h1C71.1,15.5,71.2,15.7,71.2,16.1z"/>
	<path class="st2" d="M82,18.1c3.5,0,5.5,1.8,5.5,4.7v4c0,2.9-2,4.7-5.5,4.7c-3.5,0-5.5-1.8-5.5-4.7v-4C76.5,19.9,78.5,18.1,82,18.1
		z M82,20.1c-2.1,0-3.3,1-3.3,2.7v4c0,1.7,1.3,2.7,3.3,2.7c2.1,0,3.3-1,3.3-2.7v-4C85.3,21.1,84.1,20.1,82,20.1z"/>
	<path class="st2" d="M111.1,19.1l-3.5,11.5c-0.1,0.4-0.3,0.5-0.8,0.5h-0.7c-0.5,0-0.7-0.1-0.8-0.5l-2.2-7.2c-0.3-1-0.4-2.1-0.5-2.3
		h-0.1c0,0.2-0.2,1.3-0.5,2.3l-2.2,7.2c-0.1,0.4-0.4,0.5-0.8,0.5h-0.6c-0.4,0-0.7-0.1-0.8-0.5l-3.4-11.5c-0.2-0.5-0.1-0.7,0.5-0.7
		h0.7c0.7,0,0.9,0.1,1,0.6l1.8,6.6c0.2,1,0.4,2.5,0.5,2.7h0.1c0.1-0.3,0.3-1.7,0.6-2.8l2-6.4c0.1-0.5,0.3-0.6,1-0.6h0.4
		c0.7,0,0.8,0.1,1,0.6l2,6.4c0.3,1.1,0.5,2.5,0.6,2.8h0.1c0.1-0.3,0.2-1.6,0.5-2.8l1.8-6.6c0.1-0.5,0.3-0.6,1.1-0.6h0.6
		C111.2,18.5,111.3,18.6,111.1,19.1z"/>
	<path class="st2" d="M115.5,15v0.2c0,0.9-0.3,1.2-1.2,1.2h-0.1c-0.9,0-1.2-0.3-1.2-1.2V15c0-0.9,0.3-1.2,1.2-1.2h0.1
		C115.3,13.8,115.5,14.1,115.5,15z M115.4,19v11.5c0,0.4-0.1,0.6-0.6,0.6h-1c-0.4,0-0.6-0.1-0.6-0.6V19c0-0.4,0.1-0.6,0.6-0.6h1
		C115.3,18.5,115.4,18.6,115.4,19z"/>
	<path class="st2" d="M124,18.1c3.4,0,5,1.8,5,4.9v7.6c0,0.4-0.1,0.6-0.6,0.6h-1c-0.4,0-0.6-0.1-0.6-0.6V23c0-1.9-1-2.9-3.1-2.9
		c-1.2,0-2.2,0.2-2.8,0.4c-0.2,0.1-0.3,0.2-0.3,0.4v9.5c0,0.4-0.1,0.6-0.6,0.6h-1c-0.4,0-0.6-0.1-0.6-0.6V20.3
		c0-0.8,0.2-1.1,0.9-1.4C120.3,18.5,121.7,18.1,124,18.1z"/>
</g>
</svg>
