<?xml version="1.0" encoding="utf-8"?>
<!-- Generator: Adobe Illustrator 24.1.2, SVG Export Plug-In . SVG Version: 6.00 Build 0)  -->
<svg version="1.1" id="Capa_1" xmlns="http://www.w3.org/2000/svg" xmlns:xlink="http://www.w3.org/1999/xlink" x="0px" y="0px"
	 viewBox="0 0 90 70" style="enable-background:new 0 0 90 70;" xml:space="preserve">
<style type="text/css">
	.st0{fill:none;stroke:#464646;stroke-width:2;stroke-linecap:round;stroke-linejoin:round;stroke-miterlimit:10;}
</style>
<g id="social_campaign">
	<path class="st0" d="M71.71,43.5c2.7-4.15,4.29-9.1,4.29-14.42c0-14.63-11.87-26.5-26.5-26.5S23,14.44,23,29.08
		s11.87,26.5,26.5,26.5c5.32,0,10.27-1.58,14.42-4.29L76,55.58L71.71,43.5z"/>
	<path class="st0" d="M50.64,59.58c-3.86,3.13-8.78,5-14.14,5c-4.52,0-8.72-1.35-12.25-3.64L14,64.58l3.64-10.25
		C15.35,50.8,14,46.6,14,42.08c0-5.36,1.87-10.28,5-14.14"/>
	<g>
		<path class="st0" d="M34,29.58h5c3.33-2.5,6.34-5.8,7.98-9.68c1.26-2.98,1.02-4.17,1.02-7.32c0,0,3-2,4,4c0.33,1.99,0,7-1,9"/>
		<path class="st0" d="M60,29.58c1.1,0,2,0.9,2,2l0,0c0,1.1-0.9,2-2,2h-1"/>
		<path class="st0" d="M59,33.58c1.1,0,2,0.9,2,2l0,0c0,1.1-0.9,2-2,2h-1"/>
		<path class="st0" d="M58,37.58c1.1,0,2,0.9,2,2l0,0c0,1.1-0.9,2-2,2h-6.53c-2.3,0-4.6-0.23-6.86-0.68L43,40.58h-4"/>
		<path class="st0" d="M51,25.58h9c1.1,0,2,0.9,2,2l0,0c0,1.1-0.9,2-2,2h-1"/>
	</g>
</g>
</svg>
